<svg id="e60a9MJyxfl1" xmlns="http://www.w3.org/2000/svg" xmlns:xlink="http://www.w3.org/1999/xlink" viewBox="-8 -66 243 247" shape-rendering="geometricPrecision" text-rendering="geometricPrecision">
<style><![CDATA[
#e60a9MJyxfl2_to {animation: e60a9MJyxfl2_to__to 2000ms linear infinite normal forwards}
@keyframes e60a9MJyxfl2_to__to { 0% {transform: translate(119.654861px,84.5px)} 25% {transform: translate(119.654861px,70px)} 50% {transform: translate(119.654861px,84.5px)} 75% {transform: translate(119.654861px,70px)} 100% {transform: translate(119.655075px,84.5px)}}
#e60a9MJyxfl2_tr {animation: e60a9MJyxfl2_tr__tr 2000ms linear infinite normal forwards}
@keyframes e60a9MJyxfl2_tr__tr { 0% {transform: rotate(0deg)} 12% {transform: rotate(-7deg)} 25% {transform: rotate(0deg)} 37.5% {transform: rotate(7deg)} 50% {transform: rotate(0deg)} 62.5% {transform: rotate(-7deg)} 75% {transform: rotate(0deg)} 87.5% {transform: rotate(7deg)} 100% {transform: rotate(0deg)}}
#e60a9MJyxfl3_tr {animation: e60a9MJyxfl3_tr__tr 2000ms linear infinite normal forwards}
@keyframes e60a9MJyxfl3_tr__tr { 0% {transform: translate(67.411821px,115.755691px) rotate(0.18487deg)} 25% {transform: translate(67.411821px,115.755691px) rotate(51.670371deg)} 50% {transform: translate(67.411821px,115.755691px) rotate(0deg)} 75% {transform: translate(67.411821px,115.755691px) rotate(-25.832807deg)} 100% {transform: translate(67.411821px,115.755691px) rotate(0.232471deg)}}
#e60a9MJyxfl5_tr {animation: e60a9MJyxfl5_tr__tr 2000ms linear infinite normal forwards}
@keyframes e60a9MJyxfl5_tr__tr { 0% {transform: translate(68.231908px,146.026754px) rotate(0deg)} 25% {transform: translate(68.231908px,146.026754px) rotate(46.386033deg)} 50% {transform: translate(68.231908px,146.026754px) rotate(0deg)} 75% {transform: translate(68.231908px,146.026754px) rotate(-32.2524deg)} 100% {transform: translate(68.231908px,146.026754px) rotate(0deg)}}
#e60a9MJyxfl8_tr {animation: e60a9MJyxfl8_tr__tr 2000ms linear infinite normal forwards}
@keyframes e60a9MJyxfl8_tr__tr { 0% {transform: translate(138px,115.755691px) rotate(0deg)} 25% {transform: translate(138px,115.755691px) rotate(-94.517534deg)} 50% {transform: translate(138px,115.755691px) rotate(0.286069deg)} 75% {transform: translate(138px,115.755691px) rotate(26.013831deg)} 100% {transform: translate(138px,115.755691px) rotate(0.052019deg)}}
#e60a9MJyxfl10_tr {animation: e60a9MJyxfl10_tr__tr 2000ms linear infinite normal forwards}
@keyframes e60a9MJyxfl10_tr__tr { 0% {transform: translate(137.926886px,146.010921px) rotate(0deg)} 25% {transform: translate(137.926886px,146.010921px) rotate(28.668236deg)} 50% {transform: translate(137.926886px,146.010921px) rotate(0deg)} 75% {transform: translate(137.926886px,146.010921px) rotate(38.061888deg)} 100% {transform: translate(137.926886px,146.010921px) rotate(0deg)}}
#e60a9MJyxfl14_tr {animation: e60a9MJyxfl14_tr__tr 2000ms linear infinite normal forwards}
@keyframes e60a9MJyxfl14_tr__tr { 0% {transform: translate(39.882543px,96.867478px) rotate(10deg)} 25% {transform: translate(39.882543px,96.867478px) rotate(80deg)} 50% {transform: translate(39.882543px,96.867478px) rotate(10deg)} 75% {transform: translate(39.882543px,96.867478px) rotate(80deg)} 100% {transform: translate(39.882543px,96.867478px) rotate(10deg)}}
#e60a9MJyxfl23_tr {animation: e60a9MJyxfl23_tr__tr 2000ms linear infinite normal forwards}
@keyframes e60a9MJyxfl23_tr__tr { 0% {transform: translate(140.156417px,94.853427px) rotate(0deg)} 12% {transform: translate(140.156417px,94.853427px) rotate(6.5deg)} 25% {transform: translate(140.156417px,94.853427px) rotate(0deg)} 37.5% {transform: translate(140.156417px,94.853427px) rotate(-6deg)} 50% {transform: translate(140.156417px,94.853427px) rotate(0deg)} 62.5% {transform: translate(140.156417px,94.853427px) rotate(6.5deg)} 75% {transform: translate(140.156417px,94.853427px) rotate(0deg)} 87.5% {transform: translate(140.156417px,94.853427px) rotate(-6deg)} 100% {transform: translate(140.156417px,94.853427px) rotate(0deg)}}
#e60a9MJyxfl35_tr {animation: e60a9MJyxfl35_tr__tr 2000ms linear infinite normal forwards}
@keyframes e60a9MJyxfl35_tr__tr { 0% {transform: translate(182.763962px,-7.659123px) rotate(0deg)} 12% {transform: translate(182.763962px,-7.659123px) rotate(-2deg)} 25% {transform: translate(182.763962px,-7.659123px) rotate(0deg)} 37.5% {transform: translate(182.763962px,-7.659123px) rotate(-3deg)} 50% {transform: translate(182.763962px,-7.659123px) rotate(0deg)} 62.5% {transform: translate(182.763962px,-7.659123px) rotate(1deg)} 75% {transform: translate(182.763962px,-7.659123px) rotate(0deg)} 87.5% {transform: translate(182.763962px,-7.659123px) rotate(-2deg)} 100% {transform: translate(182.763962px,-7.659123px) rotate(0deg)}}
#e60a9MJyxfl48_to {animation: e60a9MJyxfl48_to__to 2000ms linear infinite normal forwards}
@keyframes e60a9MJyxfl48_to__to { 0% {transform: translate(182px,25px)} 25% {transform: translate(182px,22px)} 50% {transform: translate(182px,25px)} 75% {transform: translate(182px,22px)} 100% {transform: translate(182px,25px)}}
#e60a9MJyxfl59_tr {animation: e60a9MJyxfl59_tr__tr 2000ms linear infinite normal forwards}
@keyframes e60a9MJyxfl59_tr__tr { 0% {transform: translate(113.263499px,115.725442px) rotate(-0.235753deg)} 25% {transform: translate(113.263499px,115.725442px) rotate(18.407372deg)} 50% {transform: translate(113.263499px,115.725442px) rotate(-0.107704deg)} 75% {transform: translate(113.263499px,115.725442px) rotate(-86.534189deg)} 100% {transform: translate(113.263499px,115.725442px) rotate(-0.342932deg)}}
#e60a9MJyxfl61_tr {animation: e60a9MJyxfl61_tr__tr 2000ms linear infinite normal forwards}
@keyframes e60a9MJyxfl61_tr__tr { 0% {transform: translate(121.067111px,145.669808px) rotate(0deg)} 25% {transform: translate(121.067111px,145.669808px) rotate(42.565442deg)} 50% {transform: translate(121.067111px,145.669808px) rotate(0deg)} 75% {transform: translate(121.067111px,145.669808px) rotate(26.871811deg)} 100% {transform: translate(121.067111px,145.669808px) rotate(0deg)}}
#e60a9MJyxfl64_tr {animation: e60a9MJyxfl64_tr__tr 2000ms linear infinite normal forwards}
@keyframes e60a9MJyxfl64_tr__tr { 0% {transform: translate(51.013365px,115.755691px) rotate(0.190806deg)} 25% {transform: translate(51.013365px,115.755691px) rotate(-27.250612deg)} 50% {transform: translate(51.013365px,115.755691px) rotate(-0.021682deg)} 75% {transform: translate(51.013365px,115.755691px) rotate(50.154368deg)} 100% {transform: translate(51.013365px,115.755691px) rotate(-0.056769deg)}}
#e60a9MJyxfl66_tr {animation: e60a9MJyxfl66_tr__tr 2000ms linear infinite normal forwards}
@keyframes e60a9MJyxfl66_tr__tr { 0% {transform: translate(50.771796px,146.135736px) rotate(0deg)} 25% {transform: translate(50.771796px,146.135736px) rotate(-27.646868deg)} 50% {transform: translate(50.771796px,146.135736px) rotate(0deg)} 75% {transform: translate(50.771796px,146.135736px) rotate(51.555389deg)} 100% {transform: translate(50.771796px,146.135736px) rotate(0deg)}}
]]></style>
<g id="e60a9MJyxfl2_to" transform="translate(119.654861,84.5)"><g id="e60a9MJyxfl2_tr" transform="rotate(0)"><g transform="translate(-119.654861,-84.5)"><g id="e60a9MJyxfl3_tr" transform="translate(67.411821,115.755691) rotate(0.18487)"><g transform="translate(-67.411821,-115.75569)"><rect width="12" height="60" rx="6" ry="6" transform="matrix(1 0 0 0.553631 62 115.333439)" fill="#b8862f"/><g id="e60a9MJyxfl5_tr" transform="translate(68.231908,146.026754) rotate(0)"><g transform="translate(-68.231908,-146.026754)"><rect width="12" height="60" rx="6" ry="6" transform="matrix(1 0 0 0.438934 62.035252 145.658425)" fill="#b8862f"/><ellipse rx="10" ry="6" transform="translate(68 175)" fill="#4e342e"/></g></g></g></g><g id="e60a9MJyxfl8_tr" transform="translate(138,115.755691) rotate(0)"><g transform="translate(-138,-115.75569)"><rect width="12" height="60" rx="6" ry="6" transform="matrix(1 0 0 0.553631 132 115.333439)" fill="#b8862f"/><g id="e60a9MJyxfl10_tr" transform="translate(137.926886,146.010921) rotate(0)"><g transform="translate(-137.926886,-146.010921)"><rect width="12" height="60" rx="6" ry="6" transform="matrix(1 0 0 0.438934 132.035251 145.65844)" fill="#b8862f"/><ellipse rx="10" ry="6" transform="translate(138 175)" fill="#4e342e"/></g></g></g></g><g><g id="e60a9MJyxfl14_tr" transform="translate(39.882543,96.867478) rotate(10)"><g transform="translate(-29.283435,-96.758598)"><path d="M30,95q-15,5-20,20-2,10,5,15" fill="none" stroke="#c4923c" stroke-width="4" stroke-linecap="round"/><ellipse rx="6" ry="6" transform="matrix(0.939693 0.34202 -0.34202 0.939693 15.000064 132.000006)" fill="#8b6915"/></g></g><ellipse rx="60" ry="35" transform="translate(95 100)" fill="#e8b84a"/><ellipse rx="12" ry="10" transform="matrix(0.965926 -0.258819 0.258819 0.965926 70.000011 95.000028)" fill="#c4923a"/><ellipse rx="10" ry="8" transform="translate(95 105)" fill="#c4923a"/><ellipse rx="8" ry="10" transform="matrix(0.984808 0.173648 -0.173648 0.984808 114.999978 90.000018)" fill="#c4923a"/><ellipse rx="7" ry="6" transform="translate(55 108)" fill="#c4923a"/><ellipse rx="30" ry="18" transform="translate(85 88)" opacity="0.4" fill="#f5d76e"/><g id="e60a9MJyxfl23_tr" transform="translate(140.156417,94.853427) rotate(0)"><g transform="translate(-140.156417,-94.853427)"><g><path d="M140,95q15-15,25-45q5-15,15.796602-50.17958" fill="none" stroke="#e8b84a" stroke-width="35" stroke-linecap="round"/><ellipse rx="8" ry="6" transform="matrix(0.939693 -0.34202 0.34202 0.939693 157.999963 58.000042)" fill="#c4923a"/><ellipse rx="6" ry="8" transform="matrix(0.906308 -0.422618 0.422618 0.906308 167.000006 35.000093)" fill="#c4923a"/><ellipse rx="7" ry="5" transform="translate(171.609544 16.193955)" fill="#c4923a"/><ellipse rx="7" ry="5" transform="translate(151 74)" fill="#c4923a"/><rect width="4" height="8" rx="2" ry="2" transform="matrix(0.819152 -0.573576 0.573576 0.819152 155.00001 44.000039)" fill="#8b6914"/><rect width="4" height="8" rx="2" ry="2" transform="matrix(0.866025 -0.5 0.5 0.866025 159.999994 27.999933)" fill="#8b6914"/><rect width="4" height="8" rx="2" ry="2" transform="matrix(0.965926 -0.258819 0.258819 0.965926 164.538051 13.427063)" fill="#8b6914"/><rect width="4" height="8" rx="2" ry="2" transform="matrix(0.965926 -0.258819 0.258819 0.965926 144.002065 71.000003)" fill="#8b6914"/><rect width="4" height="8" rx="2" ry="2" transform="matrix(0.906308 -0.422618 0.422618 0.906308 150.000051 59.000083)" fill="#8b6914"/></g><g id="e60a9MJyxfl35_tr" transform="translate(182.763962,-7.659123) rotate(0)"><g transform="translate(-174.467361,-31.080519)"><ellipse rx="25" ry="20" transform="matrix(1.125305 0 0 1.079092 182.408013 25.014938)" fill="#e8b84a"/><ellipse rx="18" ry="12" transform="translate(208 32)" fill="#f5d76e"/><ellipse rx="8" ry="5" transform="matrix(0.866025 -0.5 0.5 0.866025 164.999977 11.999974)" fill="#e8b84a"/><ellipse rx="5" ry="3" transform="matrix(0.866025 -0.5 0.5 0.866025 164.999977 11.999974)" opacity="0.5" fill="#ffb6c1"/><ellipse rx="5" ry="3" transform="matrix(0.866025 0.5 -0.5 0.866025 191.830127 10.098077)" opacity="0.5" fill="#ffb6c1"/><circle r="3" transform="translate(216 31)" fill="#5d4037"/><path d="M200,40q10,5,16,2" fill="none" stroke="#5d4037" stroke-width="2" stroke-linecap="round"/><ellipse rx="6" ry="4" transform="translate(197.500006 34.560062)" opacity="0.4" fill="#ffb6c1"/><circle r="2.8" transform="translate(222 32)" fill="#5d4037"/><g><ellipse rx="12" ry="10" transform="translate(180 20)" opacity="0.5" fill="#f5d76e"/><ellipse rx="10" ry="12" transform="translate(178 22)" fill="#fff"/><g id="e60a9MJyxfl48_to" transform="translate(182,25)"><g transform="translate(-182,-24)"><circle r="6" transform="translate(182 24)" fill="#223"/><circle r="2" transform="translate(184 22)" fill="#fff"/></g></g><ellipse rx="11" ry="13" transform="matrix(1 0 0 0.197328 178.499978 31.765264)" fill="#e8b84a"/><path d="M168,12q10-4,22,2" fill="none" stroke="#8b6914" stroke-width="2.5" stroke-linecap="round"/></g><g transform="translate(1 2)"><rect width="5" height="14" rx="2.5" ry="2.5" transform="translate(170 -8)" fill="#c4923a"/><circle r="4" transform="translate(172.5 -8)" fill="#5d4037"/></g><g transform="translate(-1 0)"><rect width="5" height="14" rx="2.5" ry="2.5" transform="translate(182 -8)" fill="#c4923a"/><circle r="4" transform="translate(184.5 -8)" fill="#5d4037"/></g></g></g></g></g></g><g id="e60a9MJyxfl59_tr" transform="translate(113.263499,115.725442) rotate(-0.235753)"><g transform="translate(-120.950792,-115.333438)"><rect width="12" height="60" rx="6" ry="6" transform="matrix(1 0 0 0.553631 114.982374 115.333439)" fill="#b8862f"/><g id="e60a9MJyxfl61_tr" transform="translate(121.067111,145.669808) rotate(0)"><g transform="translate(-121.067111,-145.669808)"><rect width="12" height="60" rx="6" ry="6" transform="matrix(1 0 0 0.438934 115.017626 145.658436)" fill="#b8862f"/><ellipse rx="10" ry="6" transform="translate(121 175)" fill="#5d4037"/></g></g></g></g><g id="e60a9MJyxfl64_tr" transform="translate(51.013365,115.755691) rotate(0.190806)"><g transform="translate(-51.017626,-115.755689)"><rect width="12" height="60" rx="6" ry="6" transform="matrix(1 0 0 0.553631 44.982374 115.333439)" fill="#b8862f"/><g id="e60a9MJyxfl66_tr" transform="translate(50.771796,146.135736) rotate(0)"><g transform="translate(-50.771796,-146.135736)"><rect width="12" height="60" rx="6" ry="6" transform="matrix(1 0 0 0.438934 45.017626 145.658439)" fill="#b8862f"/><ellipse rx="10" ry="6" transform="translate(51 175)" fill="#5d4037"/></g></g></g></g></g></g></g></svg>
